name analog
datacolumns 19
datarows 40
range 0.5 0.5195
endheader
time	ground_force_vx	ground_force_vy	ground_force_vz	ground_force_px	ground_force_py	ground_force_pz	l_ground_force_vx	l_ground_force_vy	l_ground_force_vz	l_ground_force_px	l_ground_force_py	l_ground_force_pz	ground_torque_x	ground_torque_y	ground_torque_z	l_ground_torque_x	l_ground_torque_y	l_ground_torque_z
0.5	-0.0	-0.0	-0.0	-0.0	-0.0	-0.0	2.247544050216675	-0.8832168579101562	-710.9874267578125	-0.0	-0.0	-0.0	-0.0	-0.0	-0.0	255094.46875	-48559.80078125	-3335.72802734375
0.5005000000000001	-0.0	-0.0	-0.0	-0.0	-0.0	-0.0	2.73606014251709	-0.221288725733757	-714.654541015625	-0.0	-0.0	-0.0	-0.0	-0.0	-0.0	257129.15625	-49123.3828125	-3132.501953125
0.501	-0.0	-0.0	-0.0	-0.0	-0.0	-0.0	3.5348196029663086	0.0448617488145828	-718.4949340820312	-0.0	-0.0	-0.0	-0.0	-0.0	-0.0	258492.40625	-49485.48828125	-2811.0068359375
0.5015000000000001	-0.0	-0.0	-0.0	-0.0	-0.0	-0.0	4.169406890869141	0.26327645778656	-721.6964111328125	-0.0	-0.0	-0.0	-0.0	-0.0	-0.0	259880.125	-49846.94140625	-2829.60009765625
0.502	-0.0	-0.0	-0.0	-0.0	-0.0	-0.0	4.7147321701049805	-0.5278698205947876	-726.294921875	-0.0	-0.0	-0.0	-0.0	-0.0	-0.0	261456.78125	-50300.83984375	-2479.133544921875
0.5025000000000001	-0.0	-0.0	-0.0	-0.0	-0.0	-0.0	5.763709545135498	-0.6787865161895752	-729.4973754882812	-0.0	-0.0	-0.0	-0.0	-0.0	-0.0	262653.90625	-50707.4921875	-2076.805908203125
0.503	-0.0	-0.0	-0.0	-0.0	-0.0	-0.0	6.326184272766113	-1.5290653705596924	-732.689208984375	-0.0	-0.0	-0.0	-0.0	-0.0	-0.0	263276.5625	-50888.33203125	-1740.96875
0.5035000000000001	-0.0	-0.0	-0.0	-0.0	-0.0	-0.0	6.533957004547119	-2.7652804851531982	-733.6278076171875	-0.0	-0.0	-0.0	-0.0	-0.0	-0.0	264126.3125	-51023.09375	-1484.3804931640625
0.504	-0.0	-0.0	-0.0	-0.0	-0.0	-0.0	7.22817850112915	-3.006422758102417	-735.7229614257812	-0.0	-0.0	-0.0	-0.0	-0.0	-0.0	264528.34375	-51100.609375	-1166.7672119140625
0.5045000000000001	-0.0	-0.0	-0.0	-0.0	-0.0	-0.0	7.983970642089844	-3.943753957748413	-737.408203125	-0.0	-0.0	-0.0	-0.0	-0.0	-0.0	264877.125	-51212.7890625	-733.0563354492188
0.505	-0.0	-0.0	-0.0	-0.0	-0.0	-0.0	8.959789276123047	-4.5927276611328125	-736.377685546875	-0.0	-0.0	-0.0	-0.0	-0.0	-0.0	265021.28125	-51255.15625	-177.9619903564453
0.5055000000000001	-0.0	-0.0	-0.0	-0.0	-0.0	-0.0	9.585349082946776	-5.621625900268555	-738.0021362304688	-0.0	-0.0	-0.0	-0.0	-0.0	-0.0	265269.09375	-51558.95703125	230.76953125
0.506	-0.0	-0.0	-0.0	-0.0	-0.0	-0.0	10.436649322509766	-6.140825748443604	-739.66796875	-0.0	-0.0	-0.0	-0.0	-0.0	-0.0	265551.625	-51685.8984375	553.8184814453125
0.5065000000000001	-0.0	-0.0	-0.0	-0.0	-0.0	-0.0	10.040000915527344	-7.611278057098389	-740.3248901367188	-0.0	-0.0	-0.0	-0.0	-0.0	-0.0	265423.78125	-51762.21484375	568.8239135742188
0.507	-0.0	-0.0	-0.0	-0.0	-0.0	-0.0	9.533575057983398	-8.551542282104492	-741.1027221679688	-0.0	-0.0	-0.0	-0.0	-0.0	-0.0	265806.46875	-51899.51171875	479.2328186035156
0.5075000000000001	-0.0	-0.0	-0.0	-0.0	-0.0	-0.0	9.032697677612305	-9.128600120544434	-742.99462890625	-0.0	-0.0	-0.0	-0.0	-0.0	-0.0	266200.59375	-51772.80078125	375.9263916015625
0.508	-0.0	-0.0	-0.0	-0.0	-0.0	-0.0	7.911109924316406	-9.450420379638672	-742.8074951171875	-0.0	-0.0	-0.0	-0.0	-0.0	-0.0	266326.59375	-51708.08984375	38.190162658691406
0.5085000000000001	-0.0	-0.0	-0.0	-0.0	-0.0	-0.0	6.064154148101807	-10.077791213989258	-742.26025390625	-0.0	-0.0	-0.0	-0.0	-0.0	-0.0	266563.8125	-51465.67578125	-540.5826416015625
0.509	-0.0	-0.0	-0.0	-0.0	-0.0	-0.0	4.943024158477783	-9.964437484741213	-743.183349609375	-0.0	-0.0	-0.0	-0.0	-0.0	-0.0	267074.53125	-51575.31640625	-745.9609375
0.5095000000000001	-0.0	-0.0	-0.0	-0.0	-0.0	-0.0	4.419508457183838	-9.658984184265137	-745.8172607421875	-0.0	-0.0	-0.0	-0.0	-0.0	-0.0	268008.46875	-51958.3359375	-878.5103759765625
0.51	-0.0	-0.0	-0.0	-0.0	-0.0	-0.0	4.919524669647217	-9.378121376037598	-747.5661010742188	-0.0	-0.0	-0.0	-0.0	-0.0	-0.0	268485.75	-52083.5703125	-853.759033203125
0.5105000000000001	-0.0	-0.0	-0.0	-0.0	-0.0	-0.0	4.467865943908691	-9.153270721435549	-749.3118896484375	-0.0	-0.0	-0.0	-0.0	-0.0	-0.0	269344.78125	-52314.23046875	-894.4734497070312
0.511	-0.0	-0.0	-0.0	-0.0	-0.0	-0.0	4.919169902801514	-9.15317440032959	-752.6131591796875	-0.0	-0.0	-0.0	-0.0	-0.0	-0.0	270325.3125	-52621.7890625	-840.2613525390625
0.5115000000000001	-0.0	-0.0	-0.0	-0.0	-0.0	-0.0	5.773492813110352	-8.125595092773438	-756.6402587890625	-0.0	-0.0	-0.0	-0.0	-0.0	-0.0	271232.0	-53022.47265625	-424.1446533203125
0.512	-0.0	-0.0	-0.0	-0.0	-0.0	-0.0	6.636964797973633	-7.739763736724853	-757.309814453125	-0.0	-0.0	-0.0	-0.0	-0.0	-0.0	271954.84375	-53504.08203125	-40.967716217041016
0.5125	-0.0	-0.0	-0.0	-0.0	-0.0	-0.0	7.734230041503906	-7.667666912078857	-756.9341430664062	-0.0	-0.0	-0.0	-0.0	-0.0	-0.0	272114.09375	-53749.6015625	307.9324951171875
0.513	-0.0	-0.0	-0.0	-0.0	-0.0	-0.0	8.476917266845703	-7.755916595458984	-757.1550903320312	-0.0	-0.0	-0.0	-0.0	-0.0	-0.0	272124.34375	-54158.7734375	460.0303039550781
0.5135	-0.0	-0.0	-0.0	-0.0	-0.0	-0.0	9.386831283569336	-8.661646842956543	-755.8240356445312	-0.0	-0.0	-0.0	-0.0	-0.0	-0.0	271731.375	-54341.5546875	677.114990234375
0.514	-0.0	-0.0	-0.0	-0.0	-0.0	-0.0	9.65290069580078	-8.865172386169434	-753.9717407226562	-0.0	-0.0	-0.0	-0.0	-0.0	-0.0	271598.125	-54439.90625	1233.8756103515625
0.5145	-0.0	-0.0	-0.0	-0.0	-0.0	-0.0	9.708250999450684	-10.22874355316162	-751.919921875	-0.0	-0.0	-0.0	-0.0	-0.0	-0.0	270326.59375	-54579.46484375	1279.860107421875
0.515	-0.0	-0.0	-0.0	-0.0	-0.0	-0.0	9.669475555419922	-11.415339469909668	-749.60791015625	-0.0	-0.0	-0.0	-0.0	-0.0	-0.0	269841.75	-54727.44140625	1399.9410400390625
0.5155	-0.0	-0.0	-0.0	-0.0	-0.0	-0.0	8.866195678710938	-12.276714324951172	-748.2979125976562	-0.0	-0.0	-0.0	-0.0	-0.0	-0.0	269212.09375	-54907.12890625	1241.8380126953125
0.516	-0.0	-0.0	-0.0	-0.0	-0.0	-0.0	8.389253616333008	-13.458375930786133	-748.5628051757812	-0.0	-0.0	-0.0	-0.0	-0.0	-0.0	269120.65625	-55052.91796875	1187.5567626953125
0.5165	-0.0	-0.0	-0.0	-0.0	-0.0	-0.0	8.228885650634766	-13.883304595947266	-749.0802001953125	-0.0	-0.0	-0.0	-0.0	-0.0	-0.0	268999.96875	-55377.41015625	1242.5733642578125
0.517	-0.0	-0.0	-0.0	-0.0	-0.0	-0.0	8.782367706298828	-14.400398254394531	-750.111083984375	-0.0	-0.0	-0.0	-0.0	-0.0	-0.0	269676.875	-55495.99609375	1385.465087890625
0.5175	-0.0	-0.0	-0.0	-0.0	-0.0	-0.0	9.174941062927246	-14.913171768188477	-752.7855834960938	-0.0	-0.0	-0.0	-0.0	-0.0	-0.0	270194.53125	-55833.71875	1711.886474609375
0.518	-0.0	-0.0	-0.0	-0.0	-0.0	-0.0	9.761616706848145	-15.086027145385742	-754.9329833984375	-0.0	-0.0	-0.0	-0.0	-0.0	-0.0	271066.40625	-56301.87109375	1971.197021484375
0.5185	-0.0	-0.0	-0.0	-0.0	-0.0	-0.0	9.93560791015625	-15.507448196411133	-756.893310546875	-0.0	-0.0	-0.0	-0.0	-0.0	-0.0	271804.34375	-56756.9921875	2085.3369140625
0.519	-0.0	-0.0	-0.0	-0.0	-0.0	-0.0	10.48504638671875	-15.932100296020508	-756.6791381835938	-0.0	-0.0	-0.0	-0.0	-0.0	-0.0	272381.1875	-56993.05078125	2311.462646484375
0.5195	-0.0	-0.0	-0.0	-0.0	-0.0	-0.0	11.692577362060549	-15.753133773803713	-758.6385498046875	-0.0	-0.0	-0.0	-0.0	-0.0	-0.0	272491.71875	-57345.921875	2709.509033203125
